<?xml version="1.0" encoding="utf-8"?>
<!-- Generator: Adobe Illustrator 27.5.0, SVG Export Plug-In . SVG Version: 6.00 Build 0)  -->
<svg version="1.1" xmlns="http://www.w3.org/2000/svg" xmlns:xlink="http://www.w3.org/1999/xlink" x="0px" y="0px"
	 viewBox="0 0 600 600" style="enable-background:new 0 0 600 600;" xml:space="preserve">
<g id="background">
</g>
<g id="objects">
	<g>
		<g>
			<g>
				<path style="fill:#E8A615;" d="M327.06,271.502c0.34,0.06,0.68,0.13,1.01,0.2v0.01C327.74,271.642,327.4,271.562,327.06,271.502
					z"/>
				<g>
					<path style="fill:#DB1935;" d="M268.83,272.392c5.72-1.34,11.58-2.32,17.55-2.92h0.01c0.77-0.08,1.53-0.14,2.31-0.21
						c3.72-0.3,7.49-0.46,11.3-0.46c8.91,0,17.63,0.86,26.06,2.5c0.67,0.13,1.34,0.26,2.01,0.41c4.67,0.98,9.25,2.2,13.74,3.65
						l103.95-218.88h-74.72L268.83,272.392z"/>
					<path style="fill:#C68B14;" d="M320.22,202.672l-31.52,66.59c-0.22,0.02-0.43,0.04-0.64,0.06c-0.56,0.04-1.11,0.09-1.67,0.15
						l32.71-69.1L320.22,202.672z"/>
					<polygon style="fill:#FFC943;" points="389.43,56.482 320.22,202.672 319.1,200.372 387.22,56.482 					"/>
					<polygon style="fill:#FFC943;" points="430.29,56.482 340.75,245.012 339.64,242.712 428.09,56.482 					"/>
					<path style="fill:#C68B14;" d="M340.75,245.012l-12.68,26.69c-0.33-0.07-0.67-0.14-1.01-0.2c-0.33-0.07-0.66-0.14-1-0.2
						l13.58-28.59L340.75,245.012z"/>
					<path style="fill:#C6123D;" d="M286.39,269.472c0.56-0.06,1.11-0.11,1.67-0.15c-3.93,0.34-7.82,0.85-11.64,1.52l-3.43-7.23
						l37.93-80.12l8.18,16.88L286.39,269.472z"/>
					<path style="fill:#C6123D;" d="M339.64,242.712l-13.58,28.59c-8.43-1.64-17.15-2.5-26.06-2.5c-4.02,0-8,0.18-11.94,0.52
						c0.21-0.02,0.42-0.04,0.64-0.06l31.52-66.59L339.64,242.712z"/>
					<path style="fill:#C6123D;" d="M348.57,261.132l-6.76,14.23c-3.49-1.13-7.04-2.12-10.64-2.97c-1.03-0.24-2.06-0.47-3.1-0.69
						l12.68-26.69L348.57,261.132z"/>
				</g>
				<g>
					<path style="fill:#E8A615;" d="M357.51,278.13v27.672h-6v-26.89c-3.17-1.3-6.41-2.49-9.7-3.55c-3.49-1.13-7.04-2.12-10.64-2.97
						c-10.01-2.35-20.45-3.59-31.17-3.59c-10.73,0-21.17,1.24-31.17,3.6c-3.61,0.84-7.15,1.83-10.64,2.96
						c-3.29,1.06-6.53,2.25-9.7,3.55v26.89h-6v-27.683c0-1.94,1.177-3.683,2.98-4.4c3.406-1.354,8.395-3.259,10.12-3.827
						c5.36-1.76,10.86-3.22,16.48-4.33c9.03-1.81,18.37-2.76,27.93-2.76s18.9,0.95,27.93,2.75c5.62,1.12,11.12,2.58,16.47,4.35
						c1.725,0.568,6.72,2.473,10.128,3.827C356.332,274.446,357.51,276.189,357.51,278.13z"/>
				</g>
				<g>
					<path style="fill:#DB1935;" d="M331.17,272.392c-5.72-1.34-11.58-2.32-17.55-2.92h-0.01c-0.77-0.08-1.53-0.14-2.31-0.21
						c-3.72-0.3-7.49-0.46-11.3-0.46c-8.91,0-17.63,0.86-26.06,2.5c-0.67,0.13-1.34,0.26-2.01,0.41c-4.67,0.98-9.25,2.2-13.74,3.65
						L154.24,56.482h74.72L331.17,272.392z"/>
					<path style="fill:#FFC943;" d="M313.61,269.472c-0.77-0.08-1.53-0.14-2.31-0.21L210.57,56.482h2.21L313.61,269.472z"/>
					<path style="fill:#FFC943;" d="M273.94,271.302c-0.67,0.13-1.34,0.26-2.01,0.41L169.71,56.482h2.2L273.94,271.302z"/>
				</g>
			</g>
			<g>
				<circle style="fill:#F9B906;" cx="300" cy="404.698" r="120.334"/>
				<path style="fill:#E8A615;" d="M420.33,404.702c0,66.45-53.87,120.33-120.33,120.33c-35.12,0-66.72-15.04-88.71-39.04
					c21.4,19.57,54.778,32.43,86.068,32.43c66.46,0,116.963-51.168,116.963-117.628c0-31.33-13.501-63.513-33.141-84.923
					C405.24,337.882,420.33,369.532,420.33,404.702z"/>
				<circle style="fill:#E8A615;" cx="300" cy="404.698" r="109.633"/>
				<path style="fill:#F9B906;" d="M402.925,404.696c0,56.755-46.168,102.93-102.922,102.93c-16.096,0-31.339-3.711-44.915-10.326
					c-14.168-6.899-26.522-16.949-36.149-29.242c-4.395-5.609-8.221-11.686-11.394-18.147c-6.7-13.653-10.472-29.004-10.472-45.215
					c0-12.024,2.074-23.564,5.878-34.297c11.455-32.33,38.638-57.277,72.298-65.613c7.929-1.967,16.227-3.012,24.755-3.012
					c18.985,0,36.779,5.163,52.061,14.16c6.815,4.018,13.13,8.789,18.831,14.214c10.749,10.226,19.292,22.742,24.839,36.764
					C400.374,378.612,402.925,391.358,402.925,404.696z"/>
				<path style="fill:#FFC943;" d="M352.063,315.933L207.544,449.911c-6.7-13.653-10.472-29.004-10.472-45.215
					c0-12.024,2.074-23.564,5.878-34.297l72.298-65.613c7.929-1.967,16.227-3.012,24.755-3.012
					C318.987,301.773,336.781,306.936,352.063,315.933z"/>
				<path style="fill:#FFC943;" d="M395.733,366.91L255.087,497.3c-14.168-6.899-26.522-16.949-36.149-29.242l151.956-137.911
					C381.642,340.373,390.186,352.889,395.733,366.91z"/>
			</g>
		</g>
	</g>
</g>
</svg>
