<?xml version="1.0" encoding="utf-8"?>
<!-- Generator: Adobe Illustrator 27.5.0, SVG Export Plug-In . SVG Version: 6.00 Build 0)  -->
<svg version="1.1" xmlns="http://www.w3.org/2000/svg" xmlns:xlink="http://www.w3.org/1999/xlink" x="0px" y="0px"
	 viewBox="0 0 600 600" style="enable-background:new 0 0 600 600;" xml:space="preserve">
<g id="background">
</g>
<g id="objects">
	<g>
		<path style="fill:#E8A615;" d="M345.658,448.03h-91.316c0,0,17.06-16.253,19.413-61.891c0.049-0.847,0.089-1.703,0.118-2.569
			c0.069-1.733,0.118-3.514,0.138-5.336c0.01-0.906,0.02-1.831,0.02-2.756L300,351.092l18.291,17.178l7.679,7.206
			C325.969,429.709,345.658,448.03,345.658,448.03z"/>
		<path style="fill:#B7791D;" d="M345.658,448.03h-18.202c-10.127-17.755-13.242-38.518-14.001-53.557
			c-0.421-8.351-5.686-15.677-13.455-18.769v0l-26.245,10.435c0.039-0.847,0.079-1.703,0.118-2.569
			c0.069-1.733,0.118-3.514,0.138-5.336c0.01-0.906,0.02-1.821,0.02-2.756L300,351.092l18.291,17.178l7.679,7.206
			C325.969,429.709,345.658,448.03,345.658,448.03z"/>
		<path style="fill:#343B49;" d="M178.813,520.514V462.5c0-9.561,7.751-17.312,17.312-17.312h207.75
			c9.561,0,17.313,7.751,17.313,17.312v58.014H178.813z"/>
		<path style="fill:#262D38;" d="M431.94,549.062H168.06c-5.591,0-10.124-4.533-10.124-10.124v-14.378
			c0-5.591,4.533-10.124,10.124-10.124h263.88c5.591,0,10.124,4.533,10.124,10.124v14.378
			C442.064,544.53,437.531,549.062,431.94,549.062z"/>
		<path style="fill:#262D38;" d="M421.184,462.501v51.939h-14.461v-51.939c0-9.559-7.747-17.316-17.306-17.316h14.461
			C413.437,445.185,421.184,452.942,421.184,462.501z"/>
		<path style="fill:#171C23;" d="M442.064,524.402V539.1c0,5.503-4.459,9.962-9.962,9.962H417.64c5.503,0,9.962-4.46,9.962-9.962
			v-14.698c0-4.253-2.668-7.885-6.419-9.313c-1.103-0.423-2.294-0.65-3.544-0.65h14.461
			C437.604,514.44,442.064,518.899,442.064,524.402z"/>
		<path style="fill:#E8A615;" d="M489.957,185.097c-0.896-2.638-3.042-4.853-6.094-5.631l-113.712-29.1l-62.777-99.3
			C305.66,48.359,302.835,47,300,47s-5.66,1.359-7.373,4.066l-62.777,99.3l-113.712,29.1c-3.052,0.778-5.198,2.993-6.094,5.621
			c-0.935,2.727-0.541,5.907,1.536,8.417l74.916,90.47l-7.501,117.286c-0.197,3.091,1.191,5.769,3.347,7.452
			c2.304,1.802,5.503,2.451,8.574,1.221L300,366.548l109.085,43.384c3.081,1.231,6.281,0.571,8.584-1.221
			c2.156-1.693,3.534-4.371,3.337-7.452l-7.501-117.286l74.916-90.47C490.498,190.993,490.892,187.824,489.957,185.097z"/>
		<path style="fill:#D1900F;" d="M417.67,408.711c-2.304,1.792-5.503,2.451-8.584,1.221L300,366.548l-109.085,43.384
			c-3.071,1.231-6.271,0.581-8.574-1.221l22.622-30.823L300,341.051l95.48,37.438L417.67,408.711z"/>
		<path style="fill:#B7791D;" d="M212.346,277.259l-7.383,100.629l-22.622,30.823c-2.156-1.683-3.544-4.361-3.347-7.452
			l7.501-117.286l-74.916-90.47c-2.077-2.51-2.471-5.69-1.536-8.417l37.605,12.335L212.346,277.259z"/>
		<path style="fill:#D1900F;" d="M300,47v41.346l-54.154,85.656l-98.197,23.42l-37.605-12.335c0.896-2.628,3.042-4.843,6.094-5.621
			l113.712-29.1l62.777-99.3C294.34,48.359,297.165,47,300,47z"/>
		<path style="fill:#A36819;" d="M488.421,193.504l-74.916,90.47l7.501,117.286c0.197,3.081-1.181,5.759-3.337,7.452l-22.189-30.222
			l-7.816-101.23l64.687-79.828l37.605-12.335C490.892,187.824,490.498,190.993,488.421,193.504z"/>
		<path style="fill:#B7791D;" d="M489.957,185.097l-37.605,12.335l-98.188-23.43L300,88.346V47c2.835,0,5.66,1.359,7.373,4.066
			l62.777,99.3l113.712,29.1C486.915,180.243,489.061,182.458,489.957,185.097z"/>
		<g>
			<path style="fill:#E8A615;" d="M357.59,464.38v33.612c0,2.641-2.16,4.802-4.799,4.802H247.21c-2.639,0-4.799-2.161-4.799-4.802
				V464.38c0-2.641,2.16-4.802,4.799-4.802H352.79C355.43,459.578,357.59,461.739,357.59,464.38z"/>
			<path style="fill:#B7791D;" d="M357.59,464.38v33.612c0,2.641-2.16,4.802-4.799,4.802h-95.263
				c19.389-0.384,83.265-4.514,83.265-43.215h11.998C355.43,459.578,357.59,461.739,357.59,464.38z"/>
			<path style="fill:#FFCC66;" d="M247.21,485.988v-19.644c0-1.085,0.879-1.964,1.963-1.964h43.029
				C292.201,464.38,258.008,467.981,247.21,485.988z"/>
		</g>
		<path style="fill:#4E5868;" d="M185.805,476.214v-15.373c0-5.054,4.097-9.152,9.152-9.152h41.914
			C236.871,451.689,198.061,455.777,185.805,476.214z"/>
		<polygon style="fill:#FFCC66;" points="194.665,199.281 254.089,184.425 292.291,121.817 272.129,203.525 		"/>
	</g>
</g>
</svg>
